<svg xmlns="http://www.w3.org/2000/svg" viewBox="0 0 139.79 167.53"><defs><style>.cls-1{fill:#fff;}</style></defs><title>Asset 12@72x</title><g id="Layer_2" data-name="Layer 2"><g id="OBJECTS"><path class="cls-1" d="M114.63,13.76h-14.5a8.38,8.38,0,0,0-7.87-5.59h-7a18.55,18.55,0,0,0-30.75,0h-7a8.38,8.38,0,0,0-7.87,5.59H25.16A25.19,25.19,0,0,0,0,38.92V142.36a25.2,25.2,0,0,0,25.16,25.17h89.47a25.2,25.2,0,0,0,25.16-25.17V38.92A25.19,25.19,0,0,0,114.63,13.76Zm-69.9,2.79a2.79,2.79,0,0,1,2.8-2.79h8.6a2.81,2.81,0,0,0,2.51-1.55,12.87,12.87,0,0,1,22.51,0,2.81,2.81,0,0,0,2.51,1.55h8.6a2.79,2.79,0,0,1,2.8,2.79v14a2.8,2.8,0,0,1-2.8,2.8H47.53a2.8,2.8,0,0,1-2.8-2.8Zm2.8,22.37H92.26a8.39,8.39,0,0,0,8.39-8.39h14A8.39,8.39,0,0,1,123,38.92V142.36a8.39,8.39,0,0,1-8.39,8.39H25.16a8.39,8.39,0,0,1-8.39-8.39V38.92a8.39,8.39,0,0,1,8.39-8.39h14A8.39,8.39,0,0,0,47.53,38.92ZM134.2,142.36a19.59,19.59,0,0,1-19.57,19.57H25.16A19.59,19.59,0,0,1,5.59,142.36V38.92A19.59,19.59,0,0,1,25.16,19.35h14v5.59h-14a14,14,0,0,0-14,14V142.36a14,14,0,0,0,14,14h89.47a14,14,0,0,0,14-14V38.92a14,14,0,0,0-14-14h-14V19.35h14A19.59,19.59,0,0,1,134.2,38.92Z"/><circle class="cls-1" cx="69.9" cy="13.76" r="2.8"/><path class="cls-1" d="M37,91.57a40.21,40.21,0,0,0,15.1,22,19.72,19.72,0,0,0,14.76,3.39,15.48,15.48,0,0,1,6.43,0A19.65,19.65,0,0,0,88,113.52a40.18,40.18,0,0,0,15.1-22c2.84-10.07,1.07-19.66-4.84-26.29a22.28,22.28,0,0,0-9.7-6.34,26.49,26.49,0,0,0,2.56-6.71A5.18,5.18,0,0,0,85.27,46a22.5,22.5,0,0,0-11.81,5.23A17.39,17.39,0,0,0,72,52.77a12,12,0,0,0-7.72-7.22,2.8,2.8,0,0,0-1.77,5.31,7.44,7.44,0,0,1,4.89,7.91,34.2,34.2,0,0,1-5.23-.69,22.38,22.38,0,0,0-20.37,7.21C35.93,71.91,34.16,81.48,37,91.57ZM77.26,55.32a16.07,16.07,0,0,1,8.17-3.69,17.89,17.89,0,0,1-2.88,6.21,34.83,34.83,0,0,0-7.76.72,12.86,12.86,0,0,1,2.48-3.24ZM46,69a16.79,16.79,0,0,1,15.14-5.44,43.44,43.44,0,0,0,17.63,0A16.82,16.82,0,0,1,94,69c4.62,5.17,5.94,12.84,3.64,21a34.62,34.62,0,0,1-13,19,13.94,13.94,0,0,1-10.34,2.45,21.34,21.34,0,0,0-8.5,0A14,14,0,0,1,55.37,109,34.61,34.61,0,0,1,42.4,90C40.07,81.84,41.39,74.17,46,69Z"/><path class="cls-1" d="M49.73,78.71a2.79,2.79,0,0,0,3.79-1.11h0a5.74,5.74,0,0,1,5.14-3A2.8,2.8,0,1,0,58.42,69a11.28,11.28,0,0,0-9.79,6,2.79,2.79,0,0,0,1.09,3.8Z"/><circle class="cls-1" cx="50.32" cy="86.45" r="2.8"/><path class="cls-1" d="M109,136.77H30.75a2.8,2.8,0,0,0,0,5.59H109a2.8,2.8,0,0,0,0-5.59ZM28,125.59a2.79,2.79,0,0,0,2.79,2.79H109a2.8,2.8,0,0,0,0-5.59H30.75A2.79,2.79,0,0,0,28,125.59Z"/></g></g></svg>