<svg xmlns="http://www.w3.org/2000/svg" xmlns:xlink="http://www.w3.org/1999/xlink" viewBox="0 0 2592.29 2328.9"><defs><style>.cls-1{fill:url(#Gradiente_sem_nome_3);}.cls-2{fill:#fff;}.cls-3{fill:url(#Gradiente_sem_nome_31);}.cls-4{clip-path:url(#clip-path);}.cls-5{opacity:0.15;}.cls-6{fill:none;stroke:#fff;stroke-miterlimit:10;stroke-width:2.94px;}</style><radialGradient id="Gradiente_sem_nome_3" cx="495.68" cy="-168.77" r="800.4" gradientTransform="translate(-21.23 38.07) rotate(10.11)" gradientUnits="userSpaceOnUse"><stop offset="0.35" stop-color="#bfefbf"/><stop offset="0.47" stop-color="#9bddb3"/><stop offset="0.58" stop-color="#7eceaa"/><stop offset="0.65" stop-color="#73c9a6"/></radialGradient><radialGradient id="Gradiente_sem_nome_31" cx="-340.23" cy="620.21" r="357.36" gradientTransform="translate(-1414.12 139.86) rotate(-92.01)" gradientUnits="userSpaceOnUse"><stop offset="0.38" stop-color="#73c9a6"/><stop offset="0.49" stop-color="#78cba8"/><stop offset="0.62" stop-color="#86d2ac"/><stop offset="0.75" stop-color="#9ddeb4"/><stop offset="0.89" stop-color="#bdeebe"/><stop offset="0.9" stop-color="#bfefbf"/></radialGradient><clipPath id="clip-path" transform="translate(1197.53 1133.61)"><path class="cls-1" d="M497.91,255.08c362,63.19,348-485,744.06-140.44,285.59,248.48,134.73,680-156.25,922.09s-723.15,202.51-965.28-88.47S-.19,168.14,497.91,255.08Z"/></clipPath></defs><title>Asset 6</title><g id="Layer_2" data-name="Layer 2"><g id="BACKGROUND"><path class="cls-2" d="M-666.65-444.62c-245.53-79.26-441.5,155.1-512.65-92.9s72.23-506.72,320.23-577.86,506.72,72.23,577.86,320.23S-350.09-342.43-666.65-444.62Z" transform="translate(1197.53 1133.61)"/><path class="cls-3" d="M-730.2,280.4c108.05,138.51,308.05,81.37,253.34,248.3S-711.24,786.6-878.17,731.89s-257.9-234.38-203.19-401.31S-869.5,101.83-730.2,280.4Z" transform="translate(1197.53 1133.61)"/><path class="cls-1" d="M497.91,255.08c362,63.19,348-485,744.06-140.44,285.59,248.48,134.73,680-156.25,922.09s-723.15,202.51-965.28-88.47S-.19,168.14,497.91,255.08Z" transform="translate(1197.53 1133.61)"/><g class="cls-4"><g class="cls-5"><ellipse class="cls-6" cx="710.46" cy="581.01" rx="312.61" ry="370.62" transform="translate(1005.21 1549.31) rotate(-28.9)"/><path class="cls-6" d="M504.38,169.84c-180,99.36-303.27,306.94-146.82,504.39,127.11,160.43,325,243.91,505,144.55s245.75-325.19,146.83-504.39S684.39,70.47,504.38,169.84Z" transform="translate(1197.53 1133.61)"/><path class="cls-6" d="M604.61,224.88c-180,99.37-245.75,325.19-146.83,504.39s325,243.92,505.05,144.55,198.92-306.44,146.82-504.39C1051.53,148.58,784.62,125.52,604.61,224.88Z" transform="translate(1197.53 1133.61)"/></g></g></g></g></svg>