<svg xmlns="http://www.w3.org/2000/svg" viewBox="0 0 70.1 71.43"><defs><style>.cls-1{fill:#f79f66;}.cls-2{fill:#a3db84;}.cls-3{fill:#332f2d;}</style></defs><title>Asset 14@72x</title><g id="Layer_2" data-name="Layer 2"><g id="OBJECTS"><path class="cls-1" d="M33.93,31.68A22.29,22.29,0,0,1,32.5,33.4c-1.08,1.23-2.63,2.84-4.48,4.65s-4,3.83-6.3,5.9h0c-3.13,2.81-6.11,5.32-8.56,7.25-1.23,1-2.32,1.78-3.2,2.41-.44.31-.83.57-1.14.77l-.65.4a8.87,8.87,0,1,0,8.57,15.54c.59-.33,1.14-.66,1.71-1,1-.65,2-1.38,3.16-2.21,1.69-1.25,3.56-2.73,5.57-4.4s4.17-3.53,6.39-5.52h0c3.34-3,6.35-5.87,8.85-8.41q1.88-1.91,3.34-3.56A40,40,0,0,0,48.35,42,8.87,8.87,0,1,0,33.93,31.68Z"/><path class="cls-2" d="M60.71,11c7.22,2.84,11.1,10.16,8.66,16.33s-10.26,8.88-17.48,6S40.8,23.19,43.23,17,53.49,8.14,60.71,11Z"/><polygon class="cls-3" points="53.01 3.26 53.01 3.26 53.01 3.26 53.01 3.26"/><path class="cls-3" d="M64.83,15.44l.18-.17h0A10.43,10.43,0,0,0,68.27,8,7.91,7.91,0,0,0,66,2.31h0A7.9,7.9,0,0,0,60.3,0,10.43,10.43,0,0,0,53,3.26l-.17.18a9,9,0,0,0-1.14-.89,7.87,7.87,0,0,0-7.57-.43,8.51,8.51,0,0,0-3.74,3.56A11.17,11.17,0,0,0,39,11v.2h0v.17h0a11.22,11.22,0,0,0,1.57,5.48,11.38,11.38,0,0,0,1.92,2.4,10.41,10.41,0,0,1-1.45,1.4c-.39.3-.74.53-1,.68l-.27.15,0,0h0l-.07.05a15.06,15.06,0,0,0-6.86-1.72,12.86,12.86,0,0,0-5.07,1A11.48,11.48,0,0,0,23.48,24,159.77,159.77,0,0,0,12,39.83c-3.82,5.89-7.46,12-10.44,17.42h0A15,15,0,0,0,.5,59.62,8.11,8.11,0,0,0,0,62.29a5.6,5.6,0,0,0,.35,2,5.25,5.25,0,0,0,1.18,1.8v0a5.26,5.26,0,0,0,1.81,1.17,5.57,5.57,0,0,0,2,.36A8.32,8.32,0,0,0,8,67.12,15.61,15.61,0,0,0,10.37,66c5.37-3,11.52-6.63,17.41-10.44A161.86,161.86,0,0,0,43.61,44.14a11.54,11.54,0,0,0,3.17-4.29,12.82,12.82,0,0,0,1-5.07,14.79,14.79,0,0,0-1.32-6,1.73,1.73,0,0,0,.19-.28h0s.08-.15.24-.39A11.38,11.38,0,0,1,49,25.72a11.62,11.62,0,0,0,2.4,1.9A11.18,11.18,0,0,0,57,29.16a10.63,10.63,0,0,0,7-2.38,8.32,8.32,0,0,0,2.11-2.72,7.83,7.83,0,0,0,.77-3.39h0a7.86,7.86,0,0,0-1.17-4.12A8.09,8.09,0,0,0,64.83,15.44ZM42.75,10.12ZM42.4,9.7ZM41,41.06l-.94.77-3-2.38a.6.6,0,0,0-.85.1.61.61,0,0,0,.1.85l2.8,2.21c-.78.63-1.61,1.26-2.46,1.91l-1.23-1.47a.59.59,0,0,0-.85-.07.6.6,0,0,0-.08.85l1.19,1.42c-2.06,1.52-4.28,3.08-6.59,4.64-.47-.32-1-.69-1.44-1.06a23.48,23.48,0,0,1-1.82-1.68l-.6-.62-.16-.18L25,46.29a1.21,1.21,0,0,0-1.8,1.62,32.34,32.34,0,0,0,2.91,2.8c.27.21.54.42.81.61l-1.34.88C19.79,56,13.71,59.57,8.42,62.5a12.16,12.16,0,0,1-1.76.81,3.94,3.94,0,0,1-1.33.27,1.48,1.48,0,0,1-.53-.08,1.16,1.16,0,0,1-.41-.27,1.31,1.31,0,0,1-.27-.41A1.7,1.7,0,0,1,4,62.29,4.21,4.21,0,0,1,4.31,61a11.17,11.17,0,0,1,.81-1.76h0C6.32,57,7.63,54.74,9,52.39l.15.19A20.84,20.84,0,0,0,11.3,54.8,1.21,1.21,0,0,0,12.91,53l0,0A20.92,20.92,0,0,1,11,51.06c-.23-.3-.47-.62-.68-.92,1.62-2.7,3.32-5.43,5.05-8.11,2.73-4.2,5.53-8.25,8.19-11.73a32.92,32.92,0,0,0,2.32,3.1,1.21,1.21,0,1,0,1.84-1.57,32,32,0,0,1-2.59-3.54c.47-.58.93-1.14,1.39-1.68a7.39,7.39,0,0,1,2.8-2.06,8.7,8.7,0,0,1,3.47-.69,11,11,0,0,1,10.9,10.3l-2.53-.9a.6.6,0,1,0-.4,1.14l2.93,1.05a8.5,8.5,0,0,1-.66,2.81c0,.08-.07.15-.1.22L39.76,36.8a.61.61,0,0,0-.56,1.08l3.17,1.65A7.82,7.82,0,0,1,41,41.06ZM60.52,24.28a7.17,7.17,0,0,1-3.51.84,7.07,7.07,0,0,1-3.56-1,6.83,6.83,0,0,1-2.34-2.19,2,2,0,0,0-2.71-.69,14.16,14.16,0,0,0-3.78,3.17l-.81-.82A13.34,13.34,0,0,0,47,19.81a2,2,0,0,0-.72-2.7,6.71,6.71,0,0,1-2.22-2.34,7,7,0,0,1-1-3.59h0a6.58,6.58,0,0,1,1.42-4.33,4.33,4.33,0,0,1,1.39-1.09,3.8,3.8,0,0,1,1.65-.37,3.74,3.74,0,0,1,2,.59,4.66,4.66,0,0,1,1.59,1.74,2,2,0,0,0,3.54,0,6.55,6.55,0,0,1,1.17-1.57h0A6.43,6.43,0,0,1,60.3,4,3.86,3.86,0,0,1,64.24,8a6.41,6.41,0,0,1-2.08,4.44h0a6.59,6.59,0,0,1-1.55,1.14,2,2,0,0,0,0,3.52,4.76,4.76,0,0,1,1.68,1.58,3.86,3.86,0,0,1,.19,3.65A4.56,4.56,0,0,1,60.52,24.28Z"/><path class="cls-3" d="M32.33,36.05c-.52-.36-1-.76-1.57-1.2A1.21,1.21,0,1,0,29.2,36.7h0A21,21,0,0,0,31,38a1.21,1.21,0,1,0,1.37-2Z"/></g></g></svg>