<svg xmlns="http://www.w3.org/2000/svg" viewBox="0 0 62.97 80.92"><defs><style>.cls-1{fill:#ffff;}</style></defs><title>logo</title><g id="Layer_2" data-name="Layer 2"><g id="OBJECTS"><path class="cls-1" d="M25,12.66c0,7,6.5,12.66,6.5,12.66S38,19.65,38,12.66,31.48,0,31.48,0,25,5.67,25,12.66Z"/><path class="cls-1" d="M13.48,20.32C16.94,23.78,23,23.37,23,23.37s.41-6-3.05-9.49-9.48-3-9.48-3S10,16.86,13.48,20.32Z"/><path class="cls-1" d="M49.49,20.32C46,23.78,40,23.37,40,23.37s-.42-6,3-9.49,9.48-3,9.48-3S53,16.86,49.49,20.32Z"/><path class="cls-1" d="M35.34,29.9a6.9,6.9,0,0,1-7.71,0C13.47,20.39,0,32.11,0,48.64S14.26,83.18,27.78,80.69a20.45,20.45,0,0,1,7.4,0C48.71,83.18,63,65.15,63,48.64S49.49,20.39,35.34,29.9ZM31.48,72h0C9.75,63.87,10.42,49.09,10.42,49.09,10.42,42.8,15.13,37.7,21,37.7c5.44,0,9.29,4.08,10.35,10.12a.18.18,0,0,0,.36,0c1.07-6,4.91-10.12,10.36-10.12,5.81,0,10.53,5.1,10.53,11.39C52.55,49.09,53.21,63.87,31.48,72Z"/></g></g></svg>