<svg xmlns="http://www.w3.org/2000/svg" viewBox="0 0 77.48 72.46"><defs><style>.cls-1{fill:#dae8f0;}.cls-2{fill:#f69a8b;}.cls-3{fill:#626975;}.cls-4{fill:#5bbe88;}</style></defs><title>Asset 16@72x</title><g id="Layer_2" data-name="Layer 2"><g id="OBJECTS"><path class="cls-1" d="M46.55,14c2.11,3.56,3.08,8.66,2.33,14.1-1.27,9.22-7,16.08-13,15.94V46a8.53,8.53,0,0,0,5.18,2.88c6.33.88,12.53-6.24,13.86-15.9C56.21,23.62,52.5,15.35,46.55,14ZM76.26,71.05v.2H12.38A11.17,11.17,0,0,1,4.47,52.19a8.37,8.37,0,0,1,.62-.57A11.35,11.35,0,0,0,4.84,54,11.16,11.16,0,0,0,16,65.2H67.57A11,11,0,0,0,76.26,71.05Z"/><polygon class="cls-2" points="48.1 55.25 48.1 68.42 53.23 65.52 58.35 68.42 58.35 55.25 48.1 55.25"/><path class="cls-3" d="M76.38,50.34a1.22,1.22,0,0,0,1.1-1.21v-.21a1.21,1.21,0,0,0-1.21-1.21H48.62c4.31-3.37,6.76-9.14,7.51-14.61h0C57.55,22.8,53,13.64,46.06,12.67c-3.11-.42-6.32.87-9,3.52-.11-5-1.53-9.18-4.28-12.41a1.2,1.2,0,0,0-1.7-.14,1.22,1.22,0,0,0-.14,1.71c2.44,2.87,3.65,6.51,3.71,11-2.73-2.8-6-4.16-9.23-3.73-7,1-11.5,10.13-10.08,20.44.76,5.48,3.22,11.23,7.52,14.6H12.38a12.38,12.38,0,1,0,0,24.75H76.27a1.21,1.21,0,0,0,1.21-1.21V71a1.21,1.21,0,0,0-1.1-1.2,9.79,9.79,0,0,1,0-19.5ZM17.73,32.78c-1.24-9,2.36-16.93,8-17.71,3.63-.5,6.92,2.18,9,5.28a1.21,1.21,0,0,0,2,0c2.5-3.74,5.86-5.71,9-5.28,5.65.78,9.24,8.72,8,17.7h0C52.11,44.56,42.83,52.08,36.65,45a1.21,1.21,0,0,0-.92-.42h0a1.19,1.19,0,0,0-.91.42,7.45,7.45,0,0,1-4.6,2.66C23.43,48.59,18.67,39.61,17.73,32.78Zm18,14.74c.07.07.16.12.23.19H35.5C35.57,47.64,35.66,47.59,35.74,47.52ZM70.24,70H12.38a10,10,0,1,1,0-19.91H70.24a12.11,12.11,0,0,0-4.15,5.14H60.77a1.21,1.21,0,0,0,0,2.42h4.55a11.92,11.92,0,0,0-.25,2.4,11.74,11.74,0,0,0,.25,2.39H60.77a1.21,1.21,0,1,0,0,2.42h5.32A12.11,12.11,0,0,0,70.24,70Z"/><path class="cls-3" d="M45.68,55.27H15.45a1.21,1.21,0,1,0,0,2.42H45.68a1.21,1.21,0,1,0,0-2.42Zm0,7.21H15.45a1.21,1.21,0,0,0,0,2.42H45.68a1.21,1.21,0,1,0,0-2.42Z"/><path class="cls-4" d="M53.5.85A12.86,12.86,0,0,1,36.89,8.28,12.87,12.87,0,0,1,53.5.85Z"/></g></g></svg>