<svg xmlns="http://www.w3.org/2000/svg" viewBox="0 0 222.93 165.24"><defs><style>.cls-1{fill:#fff;fill-rule:evenodd;}.cls-2,.cls-3,.cls-4,.cls-5{fill:none;stroke:#fff;stroke-linejoin:round;}.cls-2,.cls-3{stroke-width:3px;}.cls-3,.cls-5{stroke-linecap:round;}.cls-4,.cls-5{stroke-width:4px;}</style></defs><title>Asset 13@72x</title><g id="Layer_2" data-name="Layer 2"><g id="OBJECTS"><path class="cls-1" d="M114,75.24c11.2,0,19.69,8.46,19.69,18.2s-8.49,18.19-19.69,18.19-19.69-8.46-19.69-18.19S102.77,75.24,114,75.24Zm30.94,18.2C144.91,76.86,130.73,64,114,64S83,76.86,83,93.44,97.21,122.88,114,122.88,144.91,110,144.91,93.44Z"/><path class="cls-1" d="M114,122.89c17.16,0,31.54,10.19,37,24.12a4,4,0,0,1-.85,4.43A8.32,8.32,0,0,1,144,154H84a8.32,8.32,0,0,1-6.15-2.55A4,4,0,0,1,77,147C82.43,133.08,96.81,122.89,114,122.89Zm47.47,20c-7.21-18.41-25.87-31.27-47.47-31.27S73.71,124.5,66.5,142.91a15.24,15.24,0,0,0,2.91,16A19.59,19.59,0,0,0,84,165.24h60a19.59,19.59,0,0,0,14.56-6.32A15.24,15.24,0,0,0,161.44,142.91Zm-10-71.42c8.43,0,15.84,7.37,15.84,17.2s-7.41,17.21-15.84,17.21a5.63,5.63,0,0,0,0,11.25c15.28,0,27.09-13.07,27.09-28.46s-11.81-28.45-27.09-28.45a5.63,5.63,0,0,0,0,11.25Z"/><path class="cls-1" d="M151.47,117.15c17.65,0,32.54,15.32,32.54,35a5.63,5.63,0,1,0,11.25,0c0-25.19-19.28-46.21-43.79-46.21a5.63,5.63,0,0,0,0,11.25ZM77.14,71.49c-8.43,0-15.85,7.37-15.85,17.2s7.42,17.21,15.85,17.21a5.63,5.63,0,0,1,0,11.25c-15.29,0-27.1-13.07-27.1-28.46s11.81-28.45,27.1-28.45a5.63,5.63,0,0,1,0,11.25Z"/><path class="cls-1" d="M77.13,117.15c-17.65,0-32.54,15.32-32.54,35a5.63,5.63,0,1,1-11.25,0c0-25.19,19.29-46.21,43.79-46.21a5.63,5.63,0,1,1,0,11.25Z"/><path class="cls-2" d="M25.09,66.11,6.93,48C-7.75,33.27,10.42,15.07,25.09,29.77,39.76,15.07,57.92,33.28,43.27,48Z"/><path class="cls-3" d="M6.53,36.33A8.11,8.11,0,0,1,14.65,29M10,43.77a8.18,8.18,0,0,1-2.39-2.61"/><path class="cls-2" d="M197.84,66.11,179.67,48C165,33.27,183.16,15.07,197.84,29.77,212.5,15.07,230.67,33.28,216,48Z"/><path class="cls-3" d="M179.27,36.33A8.13,8.13,0,0,1,187.4,29m-4.64,14.78a8.07,8.07,0,0,1-2.39-2.61"/><path class="cls-4" d="M114.1,49.73,93.35,29c-16.77-16.76,4-37.55,20.75-20.76,16.75-16.79,37.51,4,20.77,20.76Z"/><path class="cls-5" d="M92.9,15.71a9.27,9.27,0,0,1,9.27-8.39M96.87,24.2a9.27,9.27,0,0,1-2.73-3"/></g></g></svg>