<svg xmlns="http://www.w3.org/2000/svg" xmlns:xlink="http://www.w3.org/1999/xlink" viewBox="0 0 889.33 972.23"><defs><style>.cls-1{fill:url(#Gradiente_sem_nome_13);}.cls-16,.cls-18,.cls-2,.cls-26,.cls-27,.cls-31,.cls-38,.cls-39,.cls-40,.cls-47,.cls-49,.cls-52,.cls-53,.cls-7{fill:none;}.cls-3{isolation:isolate;}.cls-4{fill:url(#Gradiente_sem_nome_31);}.cls-5{clip-path:url(#clip-path);}.cls-11,.cls-6{opacity:0.3;}.cls-26,.cls-40,.cls-53,.cls-7{stroke:#fff;}.cls-16,.cls-18,.cls-26,.cls-27,.cls-31,.cls-38,.cls-39,.cls-40,.cls-47,.cls-49,.cls-52,.cls-53,.cls-7{stroke-miterlimit:10;}.cls-7{stroke-width:2.46px;}.cls-8{clip-path:url(#clip-path-2);}.cls-9{fill:#843f31;}.cls-10{fill:#491b24;}.cls-11,.cls-24,.cls-25,.cls-43,.cls-51,.cls-54{mix-blend-mode:overlay;}.cls-12,.cls-24,.cls-25,.cls-43,.cls-51,.cls-54{fill:#fff;}.cls-13{fill:#6b2f25;}.cls-14{fill:#4292a5;}.cls-15{fill:#fdb03e;}.cls-16{stroke:#550e18;}.cls-16,.cls-18,.cls-27{stroke-width:1.18px;}.cls-17{fill:#c7240c;opacity:0.4;}.cls-18{stroke:#19657c;}.cls-19,.cls-29{fill:#56221c;}.cls-19,.cls-27,.cls-28,.cls-31,.cls-43{opacity:0.44;}.cls-19,.cls-27,.cls-28,.cls-31{mix-blend-mode:multiply;}.cls-20{fill:#8dc9d3;}.cls-21{fill:#bc5815;}.cls-22{fill:#d8691e;}.cls-23{fill:#a54c11;}.cls-24{opacity:0.71;}.cls-25{opacity:0.18;}.cls-26{stroke-width:3.53px;}.cls-27,.cls-31{stroke:#56221c;}.cls-30{clip-path:url(#clip-path-3);}.cls-31{stroke-width:1.83px;}.cls-32{fill:#b55643;}.cls-33,.cls-48{fill:#bfbfbf;}.cls-34{fill:#c66f58;}.cls-35{fill:#6fb590;}.cls-36{fill:#590a06;}.cls-37{fill:#589975;}.cls-38{stroke:#491b24;stroke-width:2.07px;}.cls-39{stroke:#931c0f;stroke-width:1.18px;}.cls-40{stroke-width:5.12px;}.cls-41{fill:#ad300e;}.cls-42{fill:#8c240c;}.cls-44{fill:#3e875f;}.cls-45{fill:#8bcca9;}.cls-46{fill:#479369;}.cls-46,.cls-48{opacity:0.28;}.cls-47,.cls-52{stroke:#479369;}.cls-47{stroke-width:1.31px;}.cls-49{stroke:#8e2a25;}.cls-49,.cls-53{stroke-width:1.71px;}.cls-50{fill:#19657c;}.cls-51{opacity:0.39;}.cls-52{stroke-width:1.33px;}.cls-54{opacity:0.26;}</style><radialGradient id="Gradiente_sem_nome_13" cx="608.44" cy="1080.9" r="683.05" gradientUnits="userSpaceOnUse"><stop offset="0.16" stop-color="#bfefbf"/><stop offset="0.32" stop-color="#bbedbe"/><stop offset="0.47" stop-color="#afe7ba"/><stop offset="0.63" stop-color="#9bddb3"/><stop offset="0.79" stop-color="#7fcfaa"/><stop offset="0.84" stop-color="#73c9a6"/></radialGradient><radialGradient id="Gradiente_sem_nome_31" cx="850.16" cy="-1155.72" r="93.22" gradientTransform="translate(1342.31 -710.2) rotate(-171.16)" gradientUnits="userSpaceOnUse"><stop offset="0.38" stop-color="#73c9a6"/><stop offset="0.49" stop-color="#78cba8"/><stop offset="0.62" stop-color="#86d2ac"/><stop offset="0.75" stop-color="#9ddeb4"/><stop offset="0.89" stop-color="#bdeebe"/><stop offset="0.9" stop-color="#bfefbf"/></radialGradient><clipPath id="clip-path" transform="translate(-37.62 -214.69)"><path class="cls-1" d="M302.18,511.56c199.44-94.95,183.71-356,373.75-243.44S928.75,626,816.16,816.06,458.26,1068.88,268.22,956.3,45.06,634,302.18,511.56Z"/></clipPath><clipPath id="clip-path-2" transform="translate(-37.62 -214.69)"><path class="cls-2" d="M220.79,361.9C350.21,287.12,350.9,45,463.56,4.76c28-10,73.65-6.49,146,32.8,348.78,189.54,480.8,831.76,367,898.15-24.75,14.43-94.52,21.12-142.69-10.48-28.49-18.69-42-45.87-66.62-43-17.32,2-23.35,16.94-49.56,42,0,0-22.37,21.38-68.4,49.4-74.82,45.54-162.53,40.18-199,38a411.75,411.75,0,0,1-122.72-26.45c-56.29-21.76-92.76-50.47-100.19-56.43-39.29-31.48-39.77-46-72.35-75.5-65.73-59.5-110.94-43-134.52-74.59C-24.25,718.73-11.32,496,220.79,361.9Z"/></clipPath><clipPath id="clip-path-3" transform="translate(-37.62 -214.69)"><rect class="cls-2" x="309.53" y="337.12" width="629.7" height="675.1"/></clipPath></defs><title>pessoas@72x</title><g class="cls-3"><g id="Layer_2" data-name="Layer 2"><g id="OBJECTS"><path class="cls-4" d="M347.69,217.18a89.88,89.88,0,0,1-87.12,157.24C217.15,350.36,304.28,193.12,347.69,217.18Z" transform="translate(-37.62 -214.69)"/><path class="cls-1" d="M302.18,511.56c199.44-94.95,183.71-356,373.75-243.44S928.75,626,816.16,816.06,458.26,1068.88,268.22,956.3,45.06,634,302.18,511.56Z" transform="translate(-37.62 -214.69)"/><g class="cls-5"><g class="cls-6"><ellipse class="cls-7" cx="491.24" cy="458.6" rx="310.66" ry="262.03"/><path class="cls-7" d="M143.64,658C143.64,830.3,246,1004.83,454.3,970,623.52,941.72,765,830.3,765,658S625.87,345.89,454.3,345.89,143.64,485.61,143.64,658Z" transform="translate(-37.62 -214.69)"/><path class="cls-7" d="M224.64,606.7c0,172.34,139.08,312.06,310.66,312.06S846,779,846,606.7,701.66,336.6,535.3,294.64C349.68,247.83,224.64,434.35,224.64,606.7Z" transform="translate(-37.62 -214.69)"/></g></g></g><g id="PHOTOS"><g class="cls-8"><path class="cls-9" d="M83,616.35s5.06-37.62,6.16-47.73,6.41-53,12.3-62.1,12.6-7.7,10.82,6.62l10.48-3.09s4.32-22.19,10.79-23.43,2.78,19,2.78,19l9.55-7.8s1.44-13.31,7-21,9.3,18.19,9.3,18.19l-26.51,93Z" transform="translate(-37.62 -214.69)"/><path class="cls-10" d="M433.14,511.67a16.49,16.49,0,0,0-.64-26.45A16.5,16.5,0,0,0,421.7,459a16.52,16.52,0,0,0-13-22.62,16.82,16.82,0,0,0,.2-2.48,16.53,16.53,0,0,0-21.35-15.81,16.52,16.52,0,0,0-24-13.13,16.5,16.5,0,0,0-27.46-7.75A16.52,16.52,0,1,0,312,419.5l-9.83,157.79L342,598.65a82.81,82.81,0,0,0,17.47-2.26,16.52,16.52,0,1,0,31.59-8.88,16.85,16.85,0,0,0,3.58.4,16.52,16.52,0,0,0,15.72-21.63c.27,0,.54,0,.81,0a16.52,16.52,0,0,0,14-25.3,16.51,16.51,0,0,0,7.95-29.35Z" transform="translate(-37.62 -214.69)"/><g class="cls-11"><path class="cls-12" d="M433.14,511.67a16.49,16.49,0,0,0-.64-26.45A16.5,16.5,0,0,0,421.7,459a16.52,16.52,0,0,0-13-22.62,16.82,16.82,0,0,0,.2-2.48,16.53,16.53,0,0,0-21.35-15.81,16.52,16.52,0,0,0-24-13.13,16.5,16.5,0,0,0-27.46-7.75A16.52,16.52,0,1,0,312,419.5l-.85,13.62c.46,0,.92-.07,1.38-.07a16.51,16.51,0,0,1,13.39,6.86,16.5,16.5,0,0,1,27.46,7.75,16.51,16.51,0,0,1,23.95,13.13,16.75,16.75,0,0,1,4.83-.72,16.53,16.53,0,0,1,16.53,16.53,15.56,15.56,0,0,1-.21,2.48,16.52,16.52,0,0,1,13,22.62,16.48,16.48,0,0,1,10.79,26.19,16.49,16.49,0,0,1,6.88,12,16.49,16.49,0,0,0,3.94-28.26Z" transform="translate(-37.62 -214.69)"/></g><path class="cls-13" d="M373.15,862.4S355.5,853.15,349.34,847c.61,17.27,0,22.2,0,22.2Z" transform="translate(-37.62 -214.69)"/><path class="cls-14" d="M358.43,895.38s8.79,64.43,8.79,116.83H154.51s17.27-83.84,31.45-119.6C208.15,873.5,358.43,895.38,358.43,895.38Z" transform="translate(-37.62 -214.69)"/><path class="cls-15" d="M284.79,561.53s-44.73,13-61.84,14.8c-13.41,66.12-21.73,101.73-26.36,123.46s9.71,53.64,19.89,54.56C213.7,795,198.44,863,186,892.61c57.8,17.57,139.18,12,172.47,2.77-4.62-50.86,1.85-145,13.41-186.5-7.86-29.44,18-119.6,18-119.6s-62-19.42-73.52-27.75S284.79,561.53,284.79,561.53Z" transform="translate(-37.62 -214.69)"/><path class="cls-12" d="M263,423.52s9.4-24.75,43.85-27.76c15.49,1.62,42.08,55,40.69,83-13.87,6.71-20.11-.92-20.11-.92Z" transform="translate(-37.62 -214.69)"/><path class="cls-9" d="M333.92,497.26s-6.41,52.25-3,83.69c-28.47,14.8-59,1.39-59,1.39s11.33-40.23,14.68-62.89S311.73,478.3,333.92,497.26Z" transform="translate(-37.62 -214.69)"/><path class="cls-10" d="M278.64,557C309.3,545.48,315,520.41,315,520.41l-29.06,3.43C284.19,533.89,281.32,546.26,278.64,557Z" transform="translate(-37.62 -214.69)"/><path class="cls-9" d="M263,423.52s-16,32.55-22.81,63.08-9.86,51.5,3.7,52.12,67.82-2.46,82-31.44l12.95-31.44S316,421.14,263,423.52Z" transform="translate(-37.62 -214.69)"/><path class="cls-9" d="M357.85,501.31c-7.58,7.58-18.85,8.6-25.17,2.28S327.38,486,335,478.42s18.86-8.61,25.18-2.29S365.44,493.72,357.85,501.31Z" transform="translate(-37.62 -214.69)"/><path class="cls-13" d="M337.28,488.59A21.45,21.45,0,0,0,331,501.44a13,13,0,0,0,1.73,2.15c6.32,6.32,17.59,5.3,25.17-2.28a21.5,21.5,0,0,0,6.33-12.86,13,13,0,0,0-1.73-2.15C356.13,480,344.86,481,337.28,488.59Z" transform="translate(-37.62 -214.69)"/><path class="cls-16" d="M253.06,469.3s-10,22.64-10.92,26.8,17.8-.69,18.49-1.15" transform="translate(-37.62 -214.69)"/><path class="cls-10" d="M272.66,461.42s25-9.24,32.83,9.71c3-9.24-4.4-17.8-11.8-19.88S275.66,451.48,272.66,461.42Z" transform="translate(-37.62 -214.69)"/><path class="cls-10" d="M270.11,477.15a18.43,18.43,0,0,1,7.47-3,23.29,23.29,0,0,1,8.16-.06,21.94,21.94,0,0,1,7.71,2.77,19.53,19.53,0,0,1,6,5.34c-1.3-.44-2.42-1.07-3.63-1.51s-2.34-1-3.55-1.31a40.86,40.86,0,0,0-7.12-1.81,46,46,0,0,0-7.35-.66A72.53,72.53,0,0,0,270.11,477.15Z" transform="translate(-37.62 -214.69)"/><path class="cls-10" d="M251.08,472.39c-.31-.49-.74-1.05-1.14-1.58s-.84-1.05-1.28-1.57c-.89-1-1.82-2.05-2.8-3,1.3.49,2.59,1,3.86,1.62.64.3,1.28.61,1.91.95s1.24.65,1.91,1.09Z" transform="translate(-37.62 -214.69)"/><path class="cls-12" d="M212.42,788.13c-1.4,8.83-3.08,18-4.94,27.16l150.46,2c.48-9.56,1.11-19.19,1.89-28.65C292.41,802.89,234.69,793.15,212.42,788.13Z" transform="translate(-37.62 -214.69)"/><path class="cls-10" d="M256.47,458.42c1.65-4.94.46-11.63-1.86-15.91-1.06,2.59-2.17,5.37-3.29,8.31A13.14,13.14,0,0,1,256.47,458.42Z" transform="translate(-37.62 -214.69)"/><ellipse class="cls-17" cx="251.69" cy="283.04" rx="14.8" ry="7.86"/><path class="cls-12" d="M347.8,508.13a5.78,5.78,0,1,1-5.78-5.78A5.78,5.78,0,0,1,347.8,508.13Z" transform="translate(-37.62 -214.69)"/><path class="cls-9" d="M373.15,583.86c-19.22-6.38-49.12-16.8-56.8-22.33-11.56-8.32-31.56,0-31.56,0s-24.8,7.18-44.53,11.61c-4.68,20.41-12.78,79,46.38,85.5C331.28,664,360.92,639.24,373.15,583.86Z" transform="translate(-37.62 -214.69)"/><line class="cls-16" x1="245.45" y1="443.48" x2="249.03" y2="423.14"/><path class="cls-13" d="M280.75,591.13s1.85,19,7.16,19.42S301.09,593,301.09,593,289.53,594.36,280.75,591.13Z" transform="translate(-37.62 -214.69)"/><path class="cls-9" d="M358.43,895.38c-2.3-25.33-1.85-61.41.61-96.36-65.86,14-122,5.57-148.4-.27C204.39,834,194.52,872.31,186,892.61,243.76,910.18,325.14,904.63,358.43,895.38Z" transform="translate(-37.62 -214.69)"/><path class="cls-13" d="M234.67,518.12c-.59,7.27-.12,12.88,1.94,16.4,5-7.45,7.73-18.74,7.73-18.74Z" transform="translate(-37.62 -214.69)"/><path class="cls-13" d="M257.24,882.74c0,4.09-1.83,7.4-4.08,7.4s-4.07-3.31-4.07-7.4,1.82-7.4,4.07-7.4S257.24,878.66,257.24,882.74Z" transform="translate(-37.62 -214.69)"/><path class="cls-18" d="M340.4,917.11s6.93,46.4,1.38,95.1" transform="translate(-37.62 -214.69)"/><path class="cls-18" d="M182.92,900.84s54.65,23.67,176.12,7.49" transform="translate(-37.62 -214.69)"/><path class="cls-19" d="M326.53,763.75c-32.06,3.7-110.06-9.4-110.06-9.4-.36,5.31-.93,11.08-1.69,17.17C284.14,789.24,357.41,760.19,326.53,763.75Z" transform="translate(-37.62 -214.69)"/><path class="cls-20" d="M116.34,591.49c-3.73,2-14.63-11.28-24.34-29.62s-14.57-34.8-10.84-36.77,14.63,11.28,24.34,29.62S120.07,589.52,116.34,591.49Z" transform="translate(-37.62 -214.69)"/><path class="cls-20" d="M190.1,467.38,81.16,525.1c3.73-2,14.63,11.28,24.34,29.62s14.57,34.8,10.84,36.77l108.93-57.72Z" transform="translate(-37.62 -214.69)"/><path class="cls-12" d="M225.5,528.27l16.77-10.12a5.13,5.13,0,0,0,2.31-5.84,29.73,29.73,0,0,0-5.81-10.2,5.17,5.17,0,0,0-6.25-1.31c-11.63,5.71-13.51,7.92-13.51,7.92Z" transform="translate(-37.62 -214.69)"/><path class="cls-21" d="M96.06,522.37l-10,5.49,30.72,58,102.89-56.42s.73-6-5-7.07C178.56,521.3,96.06,522.37,96.06,522.37Z" transform="translate(-37.62 -214.69)"/><path class="cls-9" d="M389.87,589.28s53.18.92,73.06,94.79c11.56,19.42,53.64,78.6,70.75,101.72s7.4,41.16-19.88,56-108.67,52.54-126.24,62.34-49.47,25.06-70.75,16.27c-18,.46-26.81-5.55-20.34-9.25s31.44-13.87,31.44-13.87-25.43,3.7-35.14,3.7-6-9.71,8.32-12,27.75-9.71,27.75-9.71-30.06,1.39-33.76,0-6.47-9.25,19-12c25.89-3.7,54.1-5.55,65.66-9.25s80.46-60.58,80.46-60.58l-73.52-104.5a52.43,52.43,0,0,0-14.8,16C360.74,694.7,374.15,603.15,389.87,589.28Z" transform="translate(-37.62 -214.69)"/><path class="cls-22" d="M214.76,523c0,2.9-26.57,5.25-59.35,5.25S96.06,525.92,96.06,523s26.57-5.25,59.35-5.25S214.76,520.12,214.76,523Z" transform="translate(-37.62 -214.69)"/><line class="cls-16" x1="422.54" y1="582.67" x2="458.61" y2="554"/><path class="cls-13" d="M504,825.14a41,41,0,0,0,4.78,19.26c1.81-.95,3.49-1.84,5-2.66,27.28-14.79,37-32.83,19.88-56l-.1-.13A41.14,41.14,0,0,0,504,825.14Z" transform="translate(-37.62 -214.69)"/><line class="cls-16" x1="349.02" y1="478.17" x2="340.7" y2="465.22"/><line class="cls-16" x1="279.2" y1="705.67" x2="304.4" y2="697.34"/><path class="cls-20" d="M234.8,522.66a56.19,56.19,0,0,0-7.17-19.37c-7.28,3.87-8.62,5.43-8.62,5.43l6.49,19.55Z" transform="translate(-37.62 -214.69)"/><path class="cls-16" d="M357,862s-37.12,3-48,5.88-22.68,9.95-10.4,11.8,30.32-.46,30.32-.46-18.67,6.64-27.75,9.71-14.34,5.83-13.18,10.41,40-2.09,40-2.09l-13.41,5.09" transform="translate(-37.62 -214.69)"/><path class="cls-12" d="M216.35,496c-9.72-18.33-20.62-31.6-24.34-29.62L181.44,472c3.72-2,14.62,11.29,24.33,29.62s14.57,34.8,10.84,36.77l10.57-5.6C230.91,530.79,226.06,514.32,216.35,496Z" transform="translate(-37.62 -214.69)"/><path class="cls-23" d="M116.82,585.86c-3.25,1.72-12.77-9.86-21.26-25.88s-12.72-30.39-9.46-32.12,12.77,9.86,21.26,25.88S120.08,584.13,116.82,585.86Z" transform="translate(-37.62 -214.69)"/><path class="cls-22" d="M122.45,538.57a3.85,3.85,0,1,1-3.85-3.86A3.85,3.85,0,0,1,122.45,538.57Z" transform="translate(-37.62 -214.69)"/><path class="cls-22" d="M140.33,536.72a2,2,0,1,1-2-2A2,2,0,0,1,140.33,536.72Z" transform="translate(-37.62 -214.69)"/><path class="cls-22" d="M165.92,538.26a4.78,4.78,0,1,1-4.78-4.78A4.78,4.78,0,0,1,165.92,538.26Z" transform="translate(-37.62 -214.69)"/><path class="cls-22" d="M178.56,536.72a2,2,0,1,1-2-2A2,2,0,0,1,178.56,536.72Z" transform="translate(-37.62 -214.69)"/><path class="cls-22" d="M150.2,551.05a1.54,1.54,0,1,1-1.54-1.54A1.54,1.54,0,0,1,150.2,551.05Z" transform="translate(-37.62 -214.69)"/><path class="cls-22" d="M125.54,552.28a2.78,2.78,0,1,1-2.78-2.77A2.77,2.77,0,0,1,125.54,552.28Z" transform="translate(-37.62 -214.69)"/><path class="cls-22" d="M124,566.77h0Z" transform="translate(-37.62 -214.69)"/><path class="cls-22" d="M130.28,546.8a1.6,1.6,0,1,1-1.6-1.61A1.6,1.6,0,0,1,130.28,546.8Z" transform="translate(-37.62 -214.69)"/><path class="cls-22" d="M130.28,562.21a3.14,3.14,0,1,1-3.14-3.14A3.14,3.14,0,0,1,130.28,562.21Z" transform="translate(-37.62 -214.69)"/><path class="cls-22" d="M193.05,533.48h0Z" transform="translate(-37.62 -214.69)"/><path class="cls-24" d="M180.65,481.14,98.31,524.77a4.06,4.06,0,0,0-1.68,5.46h0a4.06,4.06,0,0,0,5.46,1.68l82.35-43.63a4.05,4.05,0,0,0,1.67-5.46h0A4.05,4.05,0,0,0,180.65,481.14Z" transform="translate(-37.62 -214.69)"/><path class="cls-9" d="M223,576.33s-45.62-10.48-70.9,51.17c-22.2,35.76-40.69,51.79-40.69,51.79s13.56-68.12,24-78.45,24.66-14.65,30.21-22.66,12.33-22.45,4.32-24.48-19.12,7.22-24.66,11.53c-26.51,7.4-33.91,29-33.91,29S97.79,596,83,616.35c-16,35.81-41.31,136.31-45,154.8s20.35,49.94,56.72,22.2,95-108.51,95-108.51l11.81-7.38Z" transform="translate(-37.62 -214.69)"/><line class="cls-16" x1="73.74" y1="464.6" x2="63.88" y2="525.64"/><path class="cls-13" d="M78.68,789a37.92,37.92,0,0,0-36.07-37.87c-2.25,9.2-3.87,16.26-4.62,20-3,15.09,12.44,38.8,38,32A38.05,38.05,0,0,0,78.68,789Z" transform="translate(-37.62 -214.69)"/><path class="cls-25" d="M263,423.52s-16,32.55-22.81,63.08-9.86,51.5,3.7,52.12a135.33,135.33,0,0,0,17.85-.71c57.83-16.11,60.39-59.53,68.73-77C319.63,445,297.84,422,263,423.52Z" transform="translate(-37.62 -214.69)"/><path class="cls-26" d="M240.26,573.14s-19.16,78.56,42.8,85c60.85,6.35,81.12-36.52,90.09-74.3" transform="translate(-37.62 -214.69)"/><path class="cls-19" d="M338.86,671.12s-70.7,32.37-101.4,30.06-23.76-31-8-25.9S305.87,681.29,338.86,671.12Z" transform="translate(-37.62 -214.69)"/><path class="cls-27" d="M368.65,699.36s-15.53,54.81-17.42,101.22" transform="translate(-37.62 -214.69)"/><path class="cls-18" d="M226.91,955.49s10.24,25,24.41,36.07" transform="translate(-37.62 -214.69)"/><line class="cls-18" x1="223.02" y1="749.13" x2="208.25" y2="797.53"/><g class="cls-28"><path class="cls-29" d="M341.23,473.85a88,88,0,0,0-6.49-15.42,93,93,0,0,0-9.18-14.06,77.79,77.79,0,0,0-11.8-12,68.83,68.83,0,0,0-14.29-8.94A68.82,68.82,0,0,1,314,432.06a77.61,77.61,0,0,1,12.18,11.79,93.87,93.87,0,0,1,9.63,14,89.17,89.17,0,0,1,7,15.56Z" transform="translate(-37.62 -214.69)"/></g><g class="cls-30"><path class="cls-15" d="M772.84,1180.13c-21.84,5.55-63.59,11.49-125.55,1L645.87,1113h-8.45V929.88L764,963.37Z" transform="translate(-37.62 -214.69)"/><path class="cls-19" d="M746.6,958.75,764,963.37l8.8,216.76c-4.45,1.13-9.77,2.27-15.87,3.29Z" transform="translate(-37.62 -214.69)"/><path class="cls-19" d="M637.42,929.88l19.87,5.25c2.18,130.09-11.42,177.85-11.42,177.85h-8.45Z" transform="translate(-37.62 -214.69)"/><path class="cls-19" d="M647.29,1181.15l-.46-21.92c63.95,7.55,103.82,3,125.09-1.6l.92,22.5C751,1185.68,709.25,1191.62,647.29,1181.15Z" transform="translate(-37.62 -214.69)"/><path class="cls-15" d="M504.06,1180.13c21.84,5.55,63.58,11.49,125.54,1L631,1113h8.45V929.88L512.85,963.37Z" transform="translate(-37.62 -214.69)"/><path class="cls-19" d="M530.3,958.75l-17.45,4.62-8.79,216.76c4.44,1.13,9.76,2.27,15.86,3.29Z" transform="translate(-37.62 -214.69)"/><path class="cls-19" d="M639.47,929.88l-19.87,5.25C617.42,1065.22,631,1113,631,1113h8.45Z" transform="translate(-37.62 -214.69)"/><path class="cls-19" d="M629.6,1181.15l.46-21.92c-63.94,7.55-103.81,3-125.09-1.6l-.91,22.5C525.9,1185.68,567.64,1191.62,629.6,1181.15Z" transform="translate(-37.62 -214.69)"/><path class="cls-31" d="M512.37,975.1s99.66,38.76,252.15,0" transform="translate(-37.62 -214.69)"/><line class="cls-31" x1="608.25" y1="898.3" x2="637.5" y2="898.3"/><line class="cls-31" x1="563.2" y1="898.3" x2="592.44" y2="898.3"/><path class="cls-32" d="M484.28,576.48s17.33-3.85,28.07-9.5,17.91,15.39-4.92,23A43.63,43.63,0,0,1,484.28,576.48Z" transform="translate(-37.62 -214.69)"/><path class="cls-33" d="M542.77,520.57,530,545.43l-5.94-3,12.76-24.86-4.64-2.38L519.43,540l-5.94-3,12.76-24.86L521,509.42,506,538.78A10.55,10.55,0,0,0,510.54,553l7.81,4a10.57,10.57,0,0,0,14.22-4.57l15.07-29.37Z" transform="translate(-37.62 -214.69)"/><rect class="cls-33" x="495.96" y="545.88" width="7.39" height="75.87" transform="translate(284.11 -378.43) rotate(27.17)"/><path class="cls-34" d="M525.21,729.63,461.87,871.41,436,737.07l20-94.27S474.5,607,525.88,594C544.13,634.3,525.21,729.63,525.21,729.63Z" transform="translate(-37.62 -214.69)"/><path class="cls-35" d="M751.82,594,661.4,567l-22.55,3.76L616.29,567l-90.41,27L513.35,962.83s51.37,17,125.5,17,125.5-17,125.5-17Z" transform="translate(-37.62 -214.69)"/><path class="cls-34" d="M638.85,655.7c45.93,0,54.32-55.61,55.82-78.77L661.4,567l-22.55,3.76L616.29,567l-31.77,9.5C585.5,599.37,592.62,655.7,638.85,655.7Z" transform="translate(-37.62 -214.69)"/><rect class="cls-34" x="564.53" y="303.74" width="72.6" height="80.05"/><path class="cls-36" d="M602.14,573.55c36.17-5.88,64.68-35.12,64.68-35.12l-49.2-20H602.14Z" transform="translate(-37.62 -214.69)"/><path class="cls-10" d="M697.71,476.54s13.62-34.44,5.1-67c17.24-6.83,27.76-16.45,0-13.35-1.69-24.2-7-22-14.72-4.65C676.61,383.14,650.24,381,650.24,381s-11.79-18.62-35.06-24.2,3.1,21.1,3.1,21.1-31.65-11.17-41.89-7.45,16.76,22.65,16.76,22.65-25.14.62-32.58,11.17S573.29,425,573.29,425s-14.16,10.55-12,19.55,12,5.89,12,5.89,4.34,26.33,9.62,36.59S697.71,476.54,697.71,476.54Z" transform="translate(-37.62 -214.69)"/><path class="cls-32" d="M709.4,497.87c-7.73,9-19.61,11.38-26.52,5.41s-6.25-18.07,1.48-27,19.6-11.37,26.51-5.4S717.13,488.92,709.4,497.87Z" transform="translate(-37.62 -214.69)"/><path class="cls-34" d="M711.16,471.14a24.38,24.38,0,0,0-14.93,8.51c-7.61,8.82-8.35,20.67-1.77,26.73a24.37,24.37,0,0,0,14.94-8.51C717,489.05,717.75,477.2,711.16,471.14Z" transform="translate(-37.62 -214.69)"/><path class="cls-37" d="M762.32,903.11l-2.55-74.93C716.18,807.43,615,758.06,605.9,742.64c-11.64-19.72-58.19-27.58-58.19-27.58s-7.08,68.73,11.68,89.32,84.2,40.29,107.43,54.61C685,870.22,739.61,893.56,762.32,903.11Z" transform="translate(-37.62 -214.69)"/><path class="cls-32" d="M567.5,497.87c7.73,9,19.6,11.38,26.51,5.41s6.26-18.07-1.47-27-19.61-11.37-26.52-5.4S559.77,488.92,567.5,497.87Z" transform="translate(-37.62 -214.69)"/><path class="cls-34" d="M565.73,471.14a24.35,24.35,0,0,1,14.93,8.51c7.61,8.82,8.35,20.67,1.77,26.73a24.33,24.33,0,0,1-14.93-8.51C559.88,489.05,559.14,477.2,565.73,471.14Z" transform="translate(-37.62 -214.69)"/><path class="cls-34" d="M617.5,442.25c-14.43-.93-5.47-15.36-5.47-15.36s-11.13,13.5-25.57,16.6c3.53,49,5.66,99,46.91,107.34a25.51,25.51,0,0,0,10.15,0c44.1-8.91,43.48-65.41,47.67-117.47-10.09-8.15-28.19-12.52-40.34-14.65C644.83,425.79,629,443,617.5,442.25Z" transform="translate(-37.62 -214.69)"/><path class="cls-12" d="M646.71,486.21s14.66-22.54,35.48-5.06C673.6,490.13,646.71,486.21,646.71,486.21Z" transform="translate(-37.62 -214.69)"/><path class="cls-10" d="M674.83,485.21A11.26,11.26,0,0,0,676,478.4a11.68,11.68,0,0,0-.39-1.6c-9.44-4.62-17.19-1.4-22.28,2.5a11.12,11.12,0,0,0,2.42,7.68C661.5,487.22,668.92,487,674.83,485.21Z" transform="translate(-37.62 -214.69)"/><path class="cls-38" d="M646.71,486.21s14.59-23,35.48-5.06" transform="translate(-37.62 -214.69)"/><path class="cls-12" d="M630.18,486.21s-14.65-22.54-35.48-5.06C603.29,490.13,630.18,486.21,630.18,486.21Z" transform="translate(-37.62 -214.69)"/><path class="cls-10" d="M602.06,485.21a11.26,11.26,0,0,1-1.17-6.81,10.4,10.4,0,0,1,.4-1.6c9.43-4.62,17.18-1.4,22.27,2.5a11.12,11.12,0,0,1-2.42,7.68C615.39,487.22,608,487,602.06,485.21Z" transform="translate(-37.62 -214.69)"/><path class="cls-38" d="M630.18,486.21s-14.59-23-35.48-5.06" transform="translate(-37.62 -214.69)"/><polyline class="cls-39" points="598.27 281.09 598.27 298.31 605.95 294.58"/><path class="cls-32" d="M626.29,603.9h25.1s-4.24,19.82-12.53,19.82S626.29,603.9,626.29,603.9Z" transform="translate(-37.62 -214.69)"/><path class="cls-34" d="M751.82,594l-32.31-9.65C718,613.85,714.35,736.46,758.2,782h0Z" transform="translate(-37.62 -214.69)"/><path class="cls-34" d="M525.88,594l32.3-9.65c1.55,29.49,5.16,152.1-38.69,197.64h0Z" transform="translate(-37.62 -214.69)"/><path class="cls-40" d="M584.52,576.48s-.45,79.22,54.33,79.22,55.82-78.77,55.82-78.77" transform="translate(-37.62 -214.69)"/><path class="cls-40" d="M558.18,584.36S570,736.34,519.49,782" transform="translate(-37.62 -214.69)"/><path class="cls-40" d="M719.51,584.36S707.65,736.34,758.2,782" transform="translate(-37.62 -214.69)"/><path class="cls-33" d="M740.39,695.21c0,6.65-45.43,12-101.48,12s-101.49-5.39-101.49-12,45.44-12,101.49-12S740.39,688.57,740.39,695.21Z" transform="translate(-37.62 -214.69)"/><path class="cls-41" d="M694.11,684.72a9.65,9.65,0,1,1-9.64-9.65A9.64,9.64,0,0,1,694.11,684.72Z" transform="translate(-37.62 -214.69)"/><path class="cls-42" d="M686.68,691.07a9.65,9.65,0,0,1-8.94-13.26,9.65,9.65,0,1,0,15.67,10.52A9.63,9.63,0,0,1,686.68,691.07Z" transform="translate(-37.62 -214.69)"/><path class="cls-43" d="M690.54,680.44c1.42,2.46,1.36,5.15-.14,6s-3.85-.43-5.27-2.89-1.36-5.15.14-6S689.12,678,690.54,680.44Z" transform="translate(-37.62 -214.69)"/><path class="cls-41" d="M715.39,694.53A13.51,13.51,0,1,1,701.88,681,13.5,13.5,0,0,1,715.39,694.53Z" transform="translate(-37.62 -214.69)"/><path class="cls-42" d="M705,703.42a13.51,13.51,0,0,1-13.51-13.51,13.25,13.25,0,0,1,1-5,13.5,13.5,0,1,0,21.93,14.72A13.44,13.44,0,0,1,705,703.42Z" transform="translate(-37.62 -214.69)"/><path class="cls-43" d="M710.38,688.53c2,3.44,1.91,7.21-.18,8.42s-5.4-.61-7.38-4.05-1.91-7.21.18-8.42S708.4,685.09,710.38,688.53Z" transform="translate(-37.62 -214.69)"/><path class="cls-22" d="M588.56,694.53s-16.45-21.07-14.44-34.16,27.61,15,27.61,15S606.35,692.77,588.56,694.53Z" transform="translate(-37.62 -214.69)"/><path class="cls-23" d="M588.56,694.53c17.79-1.76,13.17-19.16,13.17-19.16a141.42,141.42,0,0,0-12.4-11.87c-.68,6.5-2,15.61-4.13,16.67-3.36,1.68-3.36-14.1-3.36-14.1s-3,6-4.53,9.75A101.07,101.07,0,0,0,588.56,694.53Z" transform="translate(-37.62 -214.69)"/><circle class="cls-41" cx="679.62" cy="701.68" r="16.08" transform="matrix(0.16, -0.99, 0.99, 0.16, -159.86, 1044.89)"/><path class="cls-42" d="M683.31,712.27a16.08,16.08,0,0,1-14.91-22.1,16.08,16.08,0,1,0,26.13,17.53A16,16,0,0,1,683.31,712.27Z" transform="translate(-37.62 -214.69)"/><path class="cls-43" d="M689.74,694.54c2.37,4.1,2.27,8.59-.22,10s-6.43-.72-8.79-4.82-2.27-8.58.22-10S687.37,690.44,689.74,694.54Z" transform="translate(-37.62 -214.69)"/><path class="cls-44" d="M643,713.13s26-1.36,21.14-8.65-13.17-6.73-8.32-13.42,6.15-11.88-1.95-13.61-21.27,9-23.35,0-2.42-19.52-13.51-14.78-6.24,13.74-15.25,12.7-13.51,2.28-13.17,8.59,10.05,9.07-5.89,8.73-22.52,10.53-11.44,18.6,40.9,7.24,45.4,7.48S624.6,714.87,643,713.13Z" transform="translate(-37.62 -214.69)"/><path class="cls-45" d="M580.77,720.34s-25.8-1.35-21-8.58,13.07-6.69,8.26-13.33-6.11-11.8,1.93-13.52,21.11,9,23.18,0,2.41-19.37,13.41-14.67,6.2,13.64,15.14,12.61,13.42,2.27,13.07,8.53-10,9,5.85,8.67S663,710.5,652,718.52s-40.59,7.18-45.06,7.43S599,722.06,580.77,720.34Z" transform="translate(-37.62 -214.69)"/><path class="cls-46" d="M605.2,722.89s-5.51-5.19-25.46-8.16-8.6-8.64,2.41-6.84-.69-6.47-4.82-11.28,1-7.23,8.6-4.47,13.42,6.53,15.14-7.23,5.85-11.69,8.26-3.78,7.22,12,12.38,9.77,8.6,2.46,2.06,8.21-3.09,9.88,11,9.88S642,722.34,605.2,722.89Z" transform="translate(-37.62 -214.69)"/><path class="cls-47" d="M605.2,722.89s-1.38-19.06-19.27-26.28" transform="translate(-37.62 -214.69)"/><line class="cls-47" x1="567.58" y1="467.47" x2="567.58" y2="508.21"/><path class="cls-47" d="M622.4,694.53s-14.79,12.54-17.2,28.36" transform="translate(-37.62 -214.69)"/><path class="cls-47" d="M637.19,712.53s-19.26,4.51-32,10.36" transform="translate(-37.62 -214.69)"/><path class="cls-47" d="M578,710.72a50.08,50.08,0,0,1,27.18,12.17" transform="translate(-37.62 -214.69)"/><path class="cls-12" d="M638.91,707.25c-56,0-101.49-5.39-101.49-12h-.12s2,67.55,40.05,94.85h123c38-27.3,40-94.85,40-94.85C740.39,701.86,695,707.25,638.91,707.25Z" transform="translate(-37.62 -214.69)"/><path class="cls-48" d="M552.68,701.56c-9.66-1.84-15.26-4-15.26-6.35h-.12s2,67.55,40.05,94.85h99.91c3.09-6.63,3-13.07-2.44-18.54C600,762.92,566.51,725.16,552.68,701.56Z" transform="translate(-37.62 -214.69)"/><path class="cls-34" d="M751.82,594s49.23,3.3,91.31,92.51c43,88.32,89.51,183.21,83.25,205.59s-51.92,32.23-81.46,21.48-117-62.66-148-79.67-72.11-34-99-37.6-39.3-21.13-14.23-19.34,40,4.13,40,4.13-12.1-14.33,20.47-12.54,54.05,5.09,61.22,18.66L784,801.7l-26.81-48.35S732.12,669.21,751.82,594Z" transform="translate(-37.62 -214.69)"/><line class="cls-49" x1="746.43" y1="587.01" x2="848.48" y2="602.23"/><path class="cls-32" d="M530,606.18A69.46,69.46,0,0,0,525.88,594C474.5,607,456,642.8,456,642.8l-20,94.27,25.9,134.34,26.34-58.95C483,678.16,485.8,668,499.37,650,506.26,640.89,525.88,616.6,530,606.18Z" transform="translate(-37.62 -214.69)"/><path class="cls-32" d="M837.74,910.68c2.65,1.16,5.07,2.15,7.18,2.91,29.54,10.75,75.19.9,81.46-21.48,1.18-4.22.48-11-1.72-19.89a62.7,62.7,0,0,0-86.92,38.46Z" transform="translate(-37.62 -214.69)"/><path class="cls-50" d="M696.88,833.92c8.68,4.77,21.79,12.27,36.82,20.84a108.72,108.72,0,0,0,18.35-58.94l-46.78-8.59s-3.54,24.14-10.28,45.69Z" transform="translate(-37.62 -214.69)"/><path class="cls-49" d="M623.58,781.11s15.44,5.53,30.66,6.12" transform="translate(-37.62 -214.69)"/><line class="cls-49" x1="719.61" y1="538.67" x2="702.78" y2="509.13"/><path class="cls-34" d="M443.3,609s21.18-31,34.61-32.53,33.52,7.69,41.58,10.37,8.53,19.25-4.56,15.77c4.56,13.47-11.31,13.47-11.31,13.47,2,8.36-6,13.06-6,13.06s4,12.08-4.7,14.77a41.86,41.86,0,0,0-14.1,7.38s-8,114.14-8,134.28S471.4,895,437.83,902.4s-64.46-4-61.77-54.38,51-192.32,51-192.32S439.86,613.42,443.3,609Z" transform="translate(-37.62 -214.69)"/><line class="cls-49" x1="477.32" y1="387.94" x2="455.27" y2="383.79"/><line class="cls-49" x1="466.01" y1="401.41" x2="449.9" y2="401.41"/><line class="cls-49" x1="459.97" y1="414.46" x2="445.87" y2="415.13"/><path class="cls-50" d="M477.91,663.84S451.39,668,428.83,650c-1.07,3.46-1.74,5.68-1.74,5.68s-5.92,17.39-13.73,42.13c0,0,12.68,18.88,61.43,12.59h0c1.18-18.19,2.35-35.46,3.12-46.58Z" transform="translate(-37.62 -214.69)"/><line class="cls-49" x1="441.17" y1="436.62" x2="429.53" y2="442.44"/><path class="cls-32" d="M397.73,854.76a52.57,52.57,0,0,0-21.66,4.65c2.32,40.65,30.89,49.79,61.76,43a22.58,22.58,0,0,0,11.38-6.65A52.84,52.84,0,0,0,397.73,854.76Z" transform="translate(-37.62 -214.69)"/><path class="cls-37" d="M552.19,839.29s47,82.36,188.2,92.21C691.84,917.18,589.79,878.68,552.19,839.29Z" transform="translate(-37.62 -214.69)"/><path class="cls-51" d="M615.18,356.77c-23.28-5.59,3.1,21.1,3.1,21.1s-31.65-11.17-41.89-7.45,16.76,22.65,16.76,22.65-25.14.62-32.58,11.17S573.29,425,573.29,425c-8.69-30.39,52.1-22.45,52.1-22.45s-5.73-12.29-13.21-19.25,19.77,0,35.11,15.56c21.07-11.46,40.8-7.37,40.8-7.37C676.61,383.14,650.24,381,650.24,381S638.45,362.35,615.18,356.77Z" transform="translate(-37.62 -214.69)"/><path class="cls-35" d="M512.35,500.58S510.48,514,522.49,517s12.35,4.7,19.07,13.09,15.92,14.43,17.36,6.38-5.53-18.13.47-20.15,7.68-13.42-7.76-15.77-20.27,1-25.41-9.4S511,489.16,512.35,500.58Z" transform="translate(-37.62 -214.69)"/><path class="cls-52" d="M520.41,495.77l3.13,10.78s19.25-1.16,31.33,2.87" transform="translate(-37.62 -214.69)"/><path class="cls-52" d="M553.53,532.69s-3.14-19-30-26.14" transform="translate(-37.62 -214.69)"/><path class="cls-53" d="M677.56,691.29c1,3.1-5.39,8-14.31,10.94s-17,2.81-18-.28,5.38-8,14.3-10.94S676.53,688.2,677.56,691.29Z" transform="translate(-37.62 -214.69)"/><path class="cls-53" d="M666.48,697.67c-.6,3.2-8.57,4.4-17.81,2.66s-16.22-5.74-15.62-9,8.57-4.39,17.81-2.66S667.08,694.46,666.48,697.67Z" transform="translate(-37.62 -214.69)"/><path class="cls-12" d="M428.83,650c-1.07,3.46-1.74,5.68-1.74,5.68s-.72,2.1-1.95,5.79c0,0,18.16,15.48,52,13.39h0c.28-4.1.54-7.83.76-11C477.91,663.84,451.39,668,428.83,650Z" transform="translate(-37.62 -214.69)"/><path class="cls-12" d="M716.59,789.31l-11.32-2.08s-3.54,24.14-10.28,45.69l1.89,1c2.57,1.41,5.57,3.09,8.86,4.94C712.7,823.07,715.55,800.61,716.59,789.31Z" transform="translate(-37.62 -214.69)"/><path class="cls-10" d="M647.67,464.58s22.58-11.37,36.79.06C677,447.53,647.64,439.88,647.67,464.58Z" transform="translate(-37.62 -214.69)"/><path class="cls-10" d="M629.22,464.58s-22.58-11.37-36.79.06C599.85,447.53,629.26,439.88,629.22,464.58Z" transform="translate(-37.62 -214.69)"/><path class="cls-12" d="M638.45,519a77.65,77.65,0,0,1-13.73-1.22,1.57,1.57,0,0,0-1.46,2.58,20.54,20.54,0,0,0,30.37,0,1.57,1.57,0,0,0-1.46-2.58A77.62,77.62,0,0,1,638.45,519Z" transform="translate(-37.62 -214.69)"/><path class="cls-54" d="M691.19,433.36c-10.09-8.15-28.19-12.52-40.34-14.65-6,7.08-21.87,24.28-33.35,23.54-14.43-.93-5.47-15.36-5.47-15.36a60.57,60.57,0,0,1-15.11,12.48c-.25,24.14,2.19,99.7,41.93,112a26.15,26.15,0,0,0,4.67-.49C687.62,541.92,687,485.42,691.19,433.36Z" transform="translate(-37.62 -214.69)"/></g></g></g></g></g></svg>