<svg xmlns="http://www.w3.org/2000/svg" viewBox="0 0 146.56 167.53"><defs><style>.cls-1{fill:#fff;}</style></defs><title>Asset 11@72x</title><g id="Layer_2" data-name="Layer 2"><g id="OBJECTS"><path class="cls-1" d="M119.53,144.41q2.58-2.13,5-4.44h.29a72.83,72.83,0,0,0,21.52-51.74h0a72.49,72.49,0,0,0-9.55-35.91,29.63,29.63,0,1,0-46.46-35,73.1,73.1,0,0,0-16.89-2.55h0a72.76,72.76,0,0,0-17.07,2.08,29.63,29.63,0,1,0-46.4,35A72.53,72.53,0,0,0,.41,87.34h0a72.86,72.86,0,0,0,21,51.21h0a73.69,73.69,0,0,0,5.57,5l-10.2,19.56a3,3,0,0,0,2.61,4.39H33.54a3,3,0,0,0,2.6-1.49l6.7-11.85A72.61,72.61,0,0,0,73,161h.41A72.45,72.45,0,0,0,104,154.13L110.76,166a3,3,0,0,0,2.61,1.49h14.1a3,3,0,0,0,2.61-4.39Zm-5.34-3.49a2.77,2.77,0,0,0-.94.83A66.68,66.68,0,0,1,76,154.84v-17a3,3,0,0,0-3-3h0a3,3,0,0,0-3,3v16.6a66.68,66.68,0,0,1-36.56-13,2.91,2.91,0,0,0-.95-.83h-.36c-1.48-1.19-3-2.43-4.32-3.67l11.85-11.86a3,3,0,0,0-4.21-4.2L23.7,132.74A66.87,66.87,0,0,1,6.39,90.48H23.05a3,3,0,0,0,0-5.92H6.45A66.85,66.85,0,0,1,24.23,42.42L36.09,54.27a3,3,0,0,0,4.2-4.2L28.44,38.21A66.76,66.76,0,0,1,70.75,20.79V37.15a3,3,0,0,0,3,3h0a3,3,0,0,0,3-3V20.79a66.77,66.77,0,0,1,42.2,17.78L107,50.42a3,3,0,1,0,4.21,4.21l11.85-11.85A66.72,66.72,0,0,1,140.86,85H123.8a3,3,0,1,0,0,5.93h16.59a66.81,66.81,0,0,1-17.78,42.55l-11.85-11.85a3,3,0,1,0-4.21,4.2l11.85,11.86c-1.24,1.12-2.55,2.25-3.85,3.26Zm2-133.41a23.35,23.35,0,0,1,17.48,39.06,73.33,73.33,0,0,0-8.41-10.19h0A73.1,73.1,0,0,0,96.65,18.6,23.72,23.72,0,0,1,116.21,7.51ZM7.16,31.22A23.71,23.71,0,0,1,50.55,18.66,73,73,0,0,0,22.1,36.08h0a73.55,73.55,0,0,0-9,10.43A23.36,23.36,0,0,1,7.16,31.22ZM31.94,161.6H24.47L31.94,148a59,59,0,0,0,5.45,3.38Zm83,0L109,151.41c1.9-1.07,3.73-2.2,5.45-3.38l7.94,13.57Z"/><path class="cls-1" d="M88.18,69,74.9,82.19a3.65,3.65,0,0,0-2.9,0L50.55,60.44A3,3,0,1,0,46,64.26a2.42,2.42,0,0,0,.32.32L67.79,86.33a6.26,6.26,0,0,0-.3,1.49,5.93,5.93,0,0,0,11.86,0,6.84,6.84,0,0,0,0-1.43L92.68,73.24a3,3,0,0,0-3.82-4.53,2.5,2.5,0,0,0-.33.32Z"/></g></g></svg>