<svg xmlns="http://www.w3.org/2000/svg" viewBox="0 0 96.77 71.14"><defs><style>.cls-1{fill:#34485c;}.cls-2,.cls-3{fill:#cad1d8;}.cls-3{fill-rule:evenodd;}.cls-4{fill:#576d7e;}</style></defs><title>Asset 17@72x</title><g id="Layer_2" data-name="Layer 2"><g id="OBJECTS"><path class="cls-1" d="M48.38,6.63A32.26,32.26,0,1,0,80.64,38.88,32.28,32.28,0,0,0,48.38,6.63Zm0,3.22a29,29,0,1,1-29,29A29,29,0,0,1,48.38,9.85Z"/><path class="cls-2" d="M88.7,45.33A1.61,1.61,0,0,0,87.09,47V69.52a1.61,1.61,0,0,0,1.61,1.62h6.45a1.61,1.61,0,0,0,1.62-1.62V47a1.61,1.61,0,0,0-1.62-1.62Zm1.62,3.23h3.22V67.91H90.32ZM0,3.4v21a1.65,1.65,0,0,0,.47,1.14l2.76,2.75V69.52a1.61,1.61,0,0,0,1.61,1.62h6.45a1.61,1.61,0,0,0,1.61-1.62V28.27l2.76-2.76a1.61,1.61,0,0,0,.47-1.14V3.4H12.9V23.7l-2.75,2.76a1.61,1.61,0,0,0-.47,1.13V67.91H6.45V27.59A1.61,1.61,0,0,0,6,26.46L3.23,23.7V3.4Z"/><path class="cls-2" d="M96.57,0c-7,0-12.72,5.28-12.72,11.93V47.1h3.23V11.94c0-4.8,4.14-8.71,9.49-8.71V0Z"/><path class="cls-3" d="M83.87,45.33v3.23h9.67V45.33ZM6.45,3.4V22.75H9.68V3.4Z"/><path class="cls-4" d="M48.38,22.75A16.13,16.13,0,1,0,64.51,38.88,16.15,16.15,0,0,0,48.38,22.75Zm0,3.23a12.9,12.9,0,1,1-12.9,12.9A12.88,12.88,0,0,1,48.38,26Zm12.15-9.67a1.61,1.61,0,0,0-.86,3A22.64,22.64,0,0,1,70.2,33a1.61,1.61,0,1,0,3.14-.73l0-.11a25.8,25.8,0,0,0-12-15.66,1.61,1.61,0,0,0-.77-.23Z"/><path class="cls-3" d="M95.13.15a1.62,1.62,0,0,0-1.59,1.64h0V48.56h3.23V1.79A1.62,1.62,0,0,0,95.18.15Z"/></g></g></svg>