<svg xmlns="http://www.w3.org/2000/svg" viewBox="0 0 72.47 72.46"><defs><style>.cls-1{fill:#e5e8f9;}.cls-2{fill:#c5ceea;}.cls-3{fill:#69f;}.cls-4{fill:#fff;}.cls-5{fill:#4c4947;}.cls-6{fill:#77e244;}.cls-7{fill:#ffc776;}.cls-8{fill:#666;}</style></defs><title>Asset 15@72x</title><g id="Layer_2" data-name="Layer 2"><g id="OBJECTS"><path class="cls-1" d="M55.62,7V69.08a3.38,3.38,0,0,1-3.38,3.38H3.38A3.38,3.38,0,0,1,0,69.08V7A3.38,3.38,0,0,1,3.38,3.58H52.24A3.38,3.38,0,0,1,55.62,7Z"/><path class="cls-2" d="M11.93,10.06A2.41,2.41,0,1,1,9.52,7.65,2.4,2.4,0,0,1,11.93,10.06Zm12.19,0a2.41,2.41,0,1,1-2.41-2.41A2.4,2.4,0,0,1,24.12,10.06Zm12.19,0A2.4,2.4,0,1,1,33.9,7.65,2.4,2.4,0,0,1,36.31,10.06Zm12.19,0a2.4,2.4,0,1,1-2.41-2.41A2.4,2.4,0,0,1,48.5,10.06Zm-8,47.78H20.51a.85.85,0,0,1,0-1.7h20a.85.85,0,0,1,0,1.7Zm0,5H9.52a.85.85,0,0,1,0-1.7H40.46a.85.85,0,1,1,0,1.7Zm-23.81-5H9.52a.85.85,0,0,1,0-1.7h7.13a.85.85,0,0,1,0,1.7Z"/><path class="cls-3" d="M21,23.05v9.6a1.69,1.69,0,0,1-1.69,1.69H9.75a1.69,1.69,0,0,1-1.69-1.69v-9.6a1.69,1.69,0,0,1,1.69-1.69h9.59A1.69,1.69,0,0,1,21,23.05Zm0,17.53v9.59a1.69,1.69,0,0,1-1.69,1.69H9.75a1.69,1.69,0,0,1-1.69-1.69V40.58a1.7,1.7,0,0,1,1.69-1.7h9.59A1.69,1.69,0,0,1,21,40.58Z"/><path class="cls-2" d="M47.56,46H27.8a.85.85,0,1,1,0-1.7H47.56a.85.85,0,1,1,0,1.7Zm0-3.88H27.8a.85.85,0,1,1,0-1.7H47.56a.85.85,0,1,1,0,1.7ZM44.3,50.35H27.8a.85.85,0,1,1,0-1.7H44.3a.85.85,0,0,1,0,1.7Zm3.26-21.89H27.8a.85.85,0,1,1,0-1.7H47.56a.85.85,0,0,1,0,1.7Zm0-3.88H27.8a.85.85,0,1,1,0-1.7H47.56a.85.85,0,1,1,0,1.7ZM44.3,32.82H27.8a.85.85,0,1,1,0-1.7H44.3a.85.85,0,0,1,0,1.7Z"/><path class="cls-4" d="M13.3,30.67h0a.86.86,0,0,1-.6-.25L11.24,29a.85.85,0,0,1,0-1.2.84.84,0,0,1,1.2,0l.86.86,3.35-3.34a.83.83,0,0,1,1.2,0,.85.85,0,0,1,0,1.2l-3.94,3.94A.86.86,0,0,1,13.3,30.67Z"/><path class="cls-4" d="M13.3,48.19h0a.85.85,0,0,1-.6-.24l-1.46-1.47a.85.85,0,1,1,1.2-1.2l.86.86,3.35-3.34a.85.85,0,0,1,1.2,1.2l-3.94,4A.85.85,0,0,1,13.3,48.19Z"/><path class="cls-5" d="M9.52,11.18A1.13,1.13,0,0,1,8.4,10.05V1.13a1.13,1.13,0,1,1,2.25,0v8.92A1.13,1.13,0,0,1,9.52,11.18Zm12.2,0a1.13,1.13,0,0,1-1.13-1.13V1.13a1.13,1.13,0,1,1,2.25,0v8.92A1.13,1.13,0,0,1,21.72,11.18Zm12.19,0a1.13,1.13,0,0,1-1.13-1.13V1.13a1.13,1.13,0,1,1,2.25,0v8.92A1.13,1.13,0,0,1,33.91,11.18Zm12.19,0A1.13,1.13,0,0,1,45,10.05V1.13a1.13,1.13,0,1,1,2.25,0v8.92A1.13,1.13,0,0,1,46.1,11.18Z"/><path class="cls-4" d="M3.22,30.24a.42.42,0,0,1-.42-.42V18.34a.43.43,0,0,1,.85,0V29.82A.42.42,0,0,1,3.22,30.24Z"/><path class="cls-4" d="M3.22,16.8a.42.42,0,0,1-.42-.42v-.7a.43.43,0,1,1,.85,0v.7A.42.42,0,0,1,3.22,16.8Z"/><path class="cls-6" d="M71.8,31.08,56,56.44a2,2,0,0,1-.67.67l-7.14,4.5a.57.57,0,0,1-.87-.55l.95-8.39a2.21,2.21,0,0,1,.32-.9L64.38,26.42a4.39,4.39,0,0,1,6-1.38h0A4.39,4.39,0,0,1,71.8,31.08Z"/><path class="cls-7" d="M48.6,51.69l-.05.08a2.21,2.21,0,0,0-.32.9l-.95,8.39a.57.57,0,0,0,.87.55l7.14-4.5a2,2,0,0,0,.67-.67l.06-.09Z"/><path class="cls-5" d="M47.61,58.1l-.33,3a.57.57,0,0,0,.86.55L50.67,60Z"/><path class="cls-8" d="M70.2,33.63l1.6-2.55a4.39,4.39,0,0,0-1.38-6h0a4.39,4.39,0,0,0-6,1.38L62.78,29Z"/><path class="cls-4" d="M53.6,47.81a.46.46,0,0,1-.23-.06.43.43,0,0,1-.14-.59l.41-.64a.41.41,0,0,1,.58-.13.42.42,0,0,1,.14.58l-.4.65A.45.45,0,0,1,53.6,47.81Zm1.86-3a.36.36,0,0,1-.22-.07.42.42,0,0,1-.14-.58l4.41-7.07A.43.43,0,0,1,60.1,37a.41.41,0,0,1,.13.58l-4.41,7.07A.42.42,0,0,1,55.46,44.83Z"/></g></g></svg>